<svg width="9" height="13" viewBox="0 0 9 13" fill="none" xmlns="http://www.w3.org/2000/svg">
<path d="M1 2.91667C1 2.40834 1.20193 1.92082 1.56138 1.56138C1.92082 1.20193 2.40834 1 2.91667 1H4.83333V4.83333H2.91667C2.40834 4.83333 1.92082 4.6314 1.56138 4.27196C1.20193 3.91251 1 3.425 1 2.91667Z" fill="#F24E1E"/>
<path d="M4.83333 1H6.75C7.0017 1 7.25094 1.04958 7.48348 1.1459C7.71602 1.24222 7.92731 1.3834 8.10529 1.56138C8.28327 1.73936 8.42445 1.95065 8.52077 2.18319C8.61709 2.41573 8.66667 2.66497 8.66667 2.91667C8.66667 3.16837 8.61709 3.4176 8.52077 3.65014C8.42445 3.88268 8.28327 4.09398 8.10529 4.27196C7.92731 4.44993 7.71602 4.59111 7.48348 4.68744C7.25094 4.78376 7.0017 4.83333 6.75 4.83333H4.83333V1Z" fill="#FF7262"/>
<path d="M4.83333 6.75C4.83333 6.4983 4.88291 6.24906 4.97923 6.01652C5.07555 5.78398 5.21673 5.57269 5.39471 5.39471C5.57269 5.21673 5.78398 5.07555 6.01652 4.97923C6.24906 4.88291 6.4983 4.83333 6.75 4.83333C7.0017 4.83333 7.25094 4.88291 7.48348 4.97923C7.71602 5.07555 7.92731 5.21673 8.10529 5.39471C8.28327 5.57269 8.42445 5.78398 8.52077 6.01652C8.61709 6.24906 8.66667 6.4983 8.66667 6.75C8.66667 7.0017 8.61709 7.25094 8.52077 7.48348C8.42445 7.71602 8.28327 7.92731 8.10529 8.10529C7.92731 8.28327 7.71602 8.42445 7.48348 8.52077C7.25094 8.61709 7.0017 8.66667 6.75 8.66667C6.4983 8.66667 6.24906 8.61709 6.01652 8.52077C5.78398 8.42445 5.57269 8.28327 5.39471 8.10529C5.21673 7.92731 5.07555 7.71602 4.97923 7.48348C4.88291 7.25094 4.83333 7.0017 4.83333 6.75Z" fill="#1ABCFE"/>
<path d="M1 10.5833C1 10.075 1.20193 9.58749 1.56138 9.22804C1.92082 8.8686 2.40834 8.66667 2.91667 8.66667H4.83333V10.5833C4.83333 11.0917 4.6314 11.5792 4.27195 11.9386C3.91251 12.2981 3.425 12.5 2.91667 12.5C2.40834 12.5 1.92082 12.2981 1.56138 11.9386C1.20193 11.5792 1 11.0917 1 10.5833Z" fill="#0ACF83"/>
<path d="M1 6.75C1 6.24167 1.20193 5.75416 1.56138 5.39471C1.92082 5.03527 2.40834 4.83333 2.91667 4.83333H4.83333V8.66667H2.91667C2.40834 8.66667 1.92082 8.46473 1.56138 8.10529C1.20193 7.74584 1 7.25833 1 6.75Z" fill="#A259FF"/>
<path d="M4.83333 1H2.91667C2.40834 1 1.92082 1.20193 1.56138 1.56138C1.20193 1.92082 1 2.40834 1 2.91667C1 3.425 1.20193 3.91251 1.56138 4.27196C1.92082 4.6314 2.40834 4.83333 2.91667 4.83333M4.83333 1V4.83333M4.83333 1H6.75C7.0017 1 7.25094 1.04958 7.48348 1.1459C7.71602 1.24222 7.92731 1.3834 8.10529 1.56138C8.28327 1.73936 8.42445 1.95065 8.52077 2.18319C8.61709 2.41573 8.66667 2.66497 8.66667 2.91667C8.66667 3.16837 8.61709 3.4176 8.52077 3.65014C8.42445 3.88268 8.28327 4.09398 8.10529 4.27196C7.92731 4.44993 7.71602 4.59111 7.48348 4.68744C7.25094 4.78376 7.0017 4.83333 6.75 4.83333M4.83333 4.83333H2.91667M4.83333 4.83333H6.75M4.83333 4.83333V8.66667M2.91667 4.83333C2.40834 4.83333 1.92082 5.03527 1.56138 5.39471C1.20193 5.75416 1 6.24167 1 6.75C1 7.25833 1.20193 7.74584 1.56138 8.10529C1.92082 8.46473 2.40834 8.66667 2.91667 8.66667M6.75 4.83333C6.4983 4.83333 6.24906 4.88291 6.01652 4.97923C5.78398 5.07555 5.57269 5.21673 5.39471 5.39471C5.21673 5.57269 5.07555 5.78398 4.97923 6.01652C4.88291 6.24906 4.83333 6.4983 4.83333 6.75C4.83333 7.0017 4.88291 7.25094 4.97923 7.48348C5.07555 7.71602 5.21673 7.92731 5.39471 8.10529C5.57269 8.28327 5.78398 8.42445 6.01652 8.52077C6.24906 8.61709 6.4983 8.66667 6.75 8.66667C7.0017 8.66667 7.25094 8.61709 7.48348 8.52077C7.71602 8.42445 7.92731 8.28327 8.10529 8.10529C8.28327 7.92731 8.42445 7.71602 8.52077 7.48348C8.61709 7.25094 8.66667 7.0017 8.66667 6.75C8.66667 6.4983 8.61709 6.24906 8.52077 6.01652C8.42445 5.78398 8.28327 5.57269 8.10529 5.39471C7.92731 5.21673 7.71602 5.07555 7.48348 4.97923C7.25094 4.88291 7.0017 4.83333 6.75 4.83333ZM2.91667 8.66667C2.40834 8.66667 1.92082 8.8686 1.56138 9.22804C1.20193 9.58749 1 10.075 1 10.5833C1 11.0917 1.20193 11.5792 1.56138 11.9386C1.92082 12.2981 2.40834 12.5 2.91667 12.5C3.425 12.5 3.91251 12.2981 4.27195 11.9386C4.6314 11.5792 4.83333 11.0917 4.83333 10.5833V8.66667M2.91667 8.66667H4.83333" stroke="#333333" stroke-width="0.5" stroke-linecap="round" stroke-linejoin="round"/>
</svg>
