<svg width="12" height="13" viewBox="0 0 12 13" fill="none" xmlns="http://www.w3.org/2000/svg">
<path d="M4.58974 10.2445C2.02564 11.0137 2.02564 8.96246 1 8.70605M8.17949 11.783V9.79835C8.19872 9.55382 8.16569 9.308 8.08257 9.07722C7.99946 8.84645 7.86817 8.63601 7.69744 8.45989C9.30769 8.28041 11 7.67015 11 4.87015C10.9999 4.15416 10.7245 3.46564 10.2308 2.94707C10.4645 2.32067 10.448 1.62828 10.1846 1.01374C10.1846 1.01374 9.57949 0.834253 8.17949 1.77271C7.00411 1.45416 5.76512 1.45416 4.58974 1.77271C3.18974 0.834253 2.58462 1.01374 2.58462 1.01374C2.32122 1.62828 2.30469 2.32067 2.53846 2.94707C2.04109 3.46948 1.7654 4.16423 1.76923 4.88553C1.76923 7.66502 3.46154 8.27528 5.07179 8.47528C4.90308 8.64962 4.77296 8.85754 4.6899 9.08549C4.60685 9.31345 4.57272 9.55634 4.58974 9.79835V11.783" stroke="#333333" stroke-linecap="round" stroke-linejoin="round"/>
</svg>
